<svg width="44" height="44" viewBox="0 0 44 44" fill="none" xmlns="http://www.w3.org/2000/svg">
<circle cx="22" cy="22" r="21.5" stroke="#959595"/>
<path d="M23.409 21.9991L29.7044 15.713C29.8926 15.5248 29.9983 15.2696 29.9983 15.0035C29.9983 14.7373 29.8926 14.4821 29.7044 14.2939C29.5162 14.1057 29.261 14 28.9949 14C28.7288 14 28.4736 14.1057 28.2854 14.2939L22 20.59L15.7146 14.2939C15.5264 14.1057 15.2712 14 15.0051 14C14.739 14 14.4838 14.1057 14.2956 14.2939C14.1074 14.4821 14.0017 14.7373 14.0017 15.0035C14.0017 15.2696 14.1074 15.5248 14.2956 15.713L20.591 21.9991L14.2956 28.2853C14.2019 28.3782 14.1276 28.4887 14.0769 28.6105C14.0261 28.7323 14 28.8629 14 28.9948C14 29.1268 14.0261 29.2574 14.0769 29.3792C14.1276 29.5009 14.2019 29.6115 14.2956 29.7044C14.3885 29.7981 14.499 29.8724 14.6208 29.9231C14.7425 29.9739 14.8732 30 15.0051 30C15.137 30 15.2676 29.9739 15.3894 29.9231C15.5111 29.8724 15.6217 29.7981 15.7146 29.7044L22 23.4083L28.2854 29.7044C28.3783 29.7981 28.4889 29.8724 28.6106 29.9231C28.7324 29.9739 28.863 30 28.9949 30C29.1268 30 29.2575 29.9739 29.3792 29.9231C29.501 29.8724 29.6115 29.7981 29.7044 29.7044C29.7981 29.6115 29.8724 29.5009 29.9232 29.3792C29.9739 29.2574 30 29.1268 30 28.9948C30 28.8629 29.9739 28.7323 29.9232 28.6105C29.8724 28.4887 29.7981 28.3782 29.7044 28.2853L23.409 21.9991Z" fill="#959595"/>
</svg>
