<svg width="44" height="44" viewBox="0 0 44 44" fill="none" xmlns="http://www.w3.org/2000/svg">
<circle cx="22" cy="22" r="21.5" stroke="#CCCCCC"/>
<mask id="path-2-outside-1_1_2693" maskUnits="userSpaceOnUse" x="12.51" y="12.5" width="19" height="19" fill="black">
<rect fill="white" x="12.51" y="12.5" width="19" height="19"/>
<path d="M21.2368 13.5H22.7612C22.7787 13.5118 22.7977 13.5213 22.8176 13.5283C23.4905 13.6722 23.9576 14.1478 24.0699 14.8211C24.0908 14.98 24.097 15.1405 24.0883 15.3005C24.0863 15.3939 24.117 15.435 24.2053 15.4655C24.4083 15.5355 24.6072 15.6177 24.806 15.699C24.9228 15.7468 25.0451 15.856 25.1491 15.8392C25.2526 15.8224 25.3367 15.6831 25.4287 15.5968C26.0523 15.0118 26.9608 15.0007 27.5845 15.5824C27.8751 15.8535 28.1571 16.1353 28.4253 16.4286C28.7759 16.8118 28.8925 17.2707 28.7979 17.782C28.7342 18.1264 28.5559 18.4057 28.3088 18.6472C28.119 18.8328 28.1247 18.8334 28.2308 19.0681C28.3147 19.2541 28.3931 19.4425 28.4658 19.6335C28.5684 19.9017 28.5652 19.9029 28.8509 19.9041C29.5598 19.9069 30.1183 20.2647 30.3652 20.879C30.4119 20.9951 30.4437 21.1171 30.4824 21.2363V22.7637C30.4703 22.7988 30.4553 22.8332 30.4464 22.8691C30.3964 23.0937 30.2977 23.3046 30.1573 23.4869C30.0169 23.6692 29.8382 23.8185 29.6338 23.9241C29.3413 24.0812 29.025 24.1112 28.7019 24.0942C28.5972 24.0887 28.5478 24.1207 28.5139 24.2257C28.4498 24.4248 28.3659 24.6177 28.2866 24.8118C28.2388 24.9287 28.1307 25.0516 28.1477 25.1558C28.1646 25.2596 28.3036 25.3437 28.3897 25.4359C28.9733 26.0612 28.984 26.9696 28.4036 27.5961C28.1373 27.8836 27.8602 28.161 27.5724 28.4283C27.1717 28.8005 26.6921 28.9167 26.1603 28.8028C25.8336 28.7308 25.5401 28.5524 25.3256 28.2957C25.2103 28.1626 25.1159 28.1344 24.9534 28.2269C24.7633 28.3351 24.5512 28.4058 24.3456 28.4846C24.093 28.5814 24.0872 28.5778 24.0917 28.8486C24.1017 29.4484 23.8712 29.9283 23.3645 30.2497C23.1833 30.3646 22.9634 30.4183 22.7612 30.5H21.2368C21.1806 30.4814 21.1249 30.4608 21.068 30.4444C20.4898 30.2772 20.1125 29.9022 19.9599 29.3225C19.9075 29.1233 19.9162 28.9064 19.9101 28.6972C19.9075 28.6048 19.881 28.5631 19.7919 28.5326C19.5887 28.4631 19.3741 28.405 19.1946 28.2933C18.9344 28.1314 18.7752 28.1826 18.5609 28.3974C17.9571 29.0024 17.0363 28.9983 16.4109 28.4143C16.1162 28.1391 15.8291 27.8539 15.5589 27.5549C15.2192 27.179 15.1096 26.7278 15.1971 26.2284C15.2653 25.8389 15.4799 25.5361 15.7665 25.2808C15.8628 25.1949 15.8689 25.1265 15.8097 25.0143C15.7173 24.839 15.6466 24.6521 15.5698 24.4687C15.521 24.3519 15.5097 24.1859 15.4236 24.1272C15.3311 24.0643 15.171 24.0985 15.0403 24.0949C14.2883 24.0746 13.64 23.5421 13.5517 22.7931C13.4925 22.2914 13.505 21.7762 13.5362 21.2701C13.5645 20.8119 13.813 20.4497 14.188 20.1823C14.5136 19.9502 14.8827 19.8791 15.2728 19.9066C15.4016 19.9157 15.4562 19.8682 15.4941 19.7495C15.5527 19.5658 15.6059 19.3721 15.7077 19.2123C15.8825 18.9379 15.8251 18.7641 15.5978 18.5353C15.326 18.2606 15.1695 17.8923 15.1604 17.506C15.1512 17.1196 15.29 16.7444 15.5484 16.457C15.8405 16.1322 16.1497 15.8233 16.4746 15.5315C16.8412 15.2019 17.2849 15.1001 17.7709 15.183C18.1727 15.2516 18.4794 15.4778 18.743 15.7722C18.8147 15.8523 18.8725 15.8565 18.968 15.8094C19.1754 15.7071 19.3895 15.6175 19.6042 15.5313C19.9018 15.4118 19.9013 15.4151 19.9077 15.0866C19.9211 14.3912 20.2501 13.9024 20.88 13.6179C20.9967 13.5721 21.1158 13.5327 21.2368 13.5ZM22.0076 14.4962C21.8309 14.4962 21.6541 14.4935 21.4775 14.4968C21.1415 14.5029 20.9079 14.7367 20.9023 15.0741C20.8985 15.3009 20.9036 15.5278 20.9006 15.7546C20.8969 16.0397 20.7687 16.2139 20.497 16.2888C19.986 16.4295 19.4947 16.6336 19.0344 16.8964C18.782 17.0402 18.5817 17.0103 18.3737 16.8076C18.2114 16.6495 18.0554 16.4848 17.8918 16.3281C17.6385 16.0855 17.3161 16.0874 17.065 16.3334C16.8241 16.5694 16.5859 16.808 16.3502 17.0493C16.0918 17.3131 16.0941 17.6345 16.3543 17.9018C16.5046 18.0563 16.66 18.2059 16.8103 18.3604C17.0213 18.5773 17.0508 18.7736 16.902 19.0356C16.6424 19.4922 16.4405 19.9794 16.3011 20.4858C16.2227 20.7698 16.0532 20.8964 15.7589 20.8996C15.5325 20.9021 15.306 20.8971 15.0796 20.9014C14.7524 20.9076 14.5157 21.1412 14.511 21.4677C14.5059 21.8217 14.5059 22.1759 14.511 22.53C14.5095 22.6049 14.5232 22.6794 14.5512 22.7489C14.5792 22.8184 14.6208 22.8815 14.6737 22.9346C14.7266 22.9876 14.7897 23.0295 14.8591 23.0576C14.9285 23.0858 15.0029 23.0997 15.0778 23.0985C15.3042 23.1031 15.5307 23.0981 15.757 23.1003C16.0525 23.1033 16.2225 23.229 16.3006 23.5122C16.4398 24.0187 16.6416 24.5058 16.9012 24.9625C17.0504 25.225 17.0217 25.4219 16.8116 25.6381C16.6576 25.7967 16.4977 25.9496 16.3442 26.1087C16.0943 26.3677 16.0957 26.6905 16.3488 26.9492C16.5808 27.1863 16.815 27.4211 17.0516 27.6536C17.3165 27.9152 17.6373 27.9182 17.9027 27.6614C18.0616 27.5077 18.2144 27.3477 18.3725 27.1931C18.5803 26.9901 18.7802 26.9592 19.033 27.1028C19.4935 27.3652 19.9847 27.5694 20.4955 27.7108C20.7683 27.7862 20.8968 27.9593 20.9006 28.2436C20.9036 28.4704 20.8986 28.6973 20.9023 28.9241C20.9077 29.262 21.1407 29.4986 21.4761 29.5028C21.824 29.5072 22.1719 29.5072 22.5199 29.5029C22.8556 29.4988 23.0897 29.2628 23.0956 28.926C23.0996 28.6992 23.0946 28.4722 23.0973 28.2454C23.1008 27.9597 23.2278 27.7863 23.5005 27.7113C24.0117 27.5709 24.5031 27.3668 24.9633 27.1037C25.2166 26.9592 25.4148 26.9885 25.6241 27.1917C25.7866 27.3496 25.9422 27.5147 26.1058 27.6715C26.3587 27.9138 26.6812 27.9123 26.933 27.6665C27.1742 27.4309 27.4125 27.1923 27.6478 26.9507C27.9013 26.6917 27.9041 26.3709 27.6549 26.1098C27.4985 25.9458 27.3337 25.7899 27.1763 25.6268C26.9802 25.4238 26.9489 25.2219 27.0876 24.9784C27.3536 24.5126 27.5596 24.0151 27.7007 23.4977C27.7724 23.2353 27.949 23.1049 28.2227 23.1007C28.4546 23.0971 28.6866 23.103 28.9185 23.0985C29.2453 23.0921 29.4819 22.8583 29.4868 22.5314C29.4921 22.1774 29.4922 21.8233 29.4868 21.4691C29.4882 21.3942 29.4745 21.3197 29.4465 21.2502C29.4185 21.1808 29.3767 21.1176 29.3237 21.0646C29.2708 21.0117 29.2077 20.9699 29.1382 20.9418C29.0687 20.9138 28.9943 20.9001 28.9194 20.9014C28.6875 20.897 28.4554 20.9029 28.2235 20.8993C27.9497 20.895 27.7723 20.7648 27.7009 20.5029C27.5598 19.9855 27.3539 19.488 27.0881 19.0221C26.949 18.7777 26.9798 18.5765 27.1758 18.3736C27.3371 18.2066 27.5065 18.0474 27.6656 17.8784C27.8998 17.6299 27.8975 17.307 27.6596 17.0619C27.4209 16.816 27.1788 16.5733 26.9334 16.334C26.6769 16.0831 26.3549 16.0861 26.0945 16.3392C25.936 16.4933 25.7834 16.6535 25.6249 16.8076C25.4159 17.0106 25.2161 17.0407 24.9641 16.8967C24.5041 16.6332 24.0127 16.429 23.5014 16.2889C23.2289 16.2141 23.1011 16.0403 23.0975 15.7553C23.0945 15.523 23.1005 15.2905 23.0951 15.0582C23.0956 14.9847 23.0815 14.9118 23.0537 14.8438C23.0259 14.7758 22.9849 14.7139 22.9331 14.6618C22.8813 14.6097 22.8197 14.5683 22.7518 14.5401C22.684 14.5118 22.6112 14.4973 22.5378 14.4973C22.3612 14.4923 22.1843 14.4964 22.0076 14.4962Z"/>
</mask>
<path d="M21.2368 13.5H22.7612C22.7787 13.5118 22.7977 13.5213 22.8176 13.5283C23.4905 13.6722 23.9576 14.1478 24.0699 14.8211C24.0908 14.98 24.097 15.1405 24.0883 15.3005C24.0863 15.3939 24.117 15.435 24.2053 15.4655C24.4083 15.5355 24.6072 15.6177 24.806 15.699C24.9228 15.7468 25.0451 15.856 25.1491 15.8392C25.2526 15.8224 25.3367 15.6831 25.4287 15.5968C26.0523 15.0118 26.9608 15.0007 27.5845 15.5824C27.8751 15.8535 28.1571 16.1353 28.4253 16.4286C28.7759 16.8118 28.8925 17.2707 28.7979 17.782C28.7342 18.1264 28.5559 18.4057 28.3088 18.6472C28.119 18.8328 28.1247 18.8334 28.2308 19.0681C28.3147 19.2541 28.3931 19.4425 28.4658 19.6335C28.5684 19.9017 28.5652 19.9029 28.8509 19.9041C29.5598 19.9069 30.1183 20.2647 30.3652 20.879C30.4119 20.9951 30.4437 21.1171 30.4824 21.2363V22.7637C30.4703 22.7988 30.4553 22.8332 30.4464 22.8691C30.3964 23.0937 30.2977 23.3046 30.1573 23.4869C30.0169 23.6692 29.8382 23.8185 29.6338 23.9241C29.3413 24.0812 29.025 24.1112 28.7019 24.0942C28.5972 24.0887 28.5478 24.1207 28.5139 24.2257C28.4498 24.4248 28.3659 24.6177 28.2866 24.8118C28.2388 24.9287 28.1307 25.0516 28.1477 25.1558C28.1646 25.2596 28.3036 25.3437 28.3897 25.4359C28.9733 26.0612 28.984 26.9696 28.4036 27.5961C28.1373 27.8836 27.8602 28.161 27.5724 28.4283C27.1717 28.8005 26.6921 28.9167 26.1603 28.8028C25.8336 28.7308 25.5401 28.5524 25.3256 28.2957C25.2103 28.1626 25.1159 28.1344 24.9534 28.2269C24.7633 28.3351 24.5512 28.4058 24.3456 28.4846C24.093 28.5814 24.0872 28.5778 24.0917 28.8486C24.1017 29.4484 23.8712 29.9283 23.3645 30.2497C23.1833 30.3646 22.9634 30.4183 22.7612 30.5H21.2368C21.1806 30.4814 21.1249 30.4608 21.068 30.4444C20.4898 30.2772 20.1125 29.9022 19.9599 29.3225C19.9075 29.1233 19.9162 28.9064 19.9101 28.6972C19.9075 28.6048 19.881 28.5631 19.7919 28.5326C19.5887 28.4631 19.3741 28.405 19.1946 28.2933C18.9344 28.1314 18.7752 28.1826 18.5609 28.3974C17.9571 29.0024 17.0363 28.9983 16.4109 28.4143C16.1162 28.1391 15.8291 27.8539 15.5589 27.5549C15.2192 27.179 15.1096 26.7278 15.1971 26.2284C15.2653 25.8389 15.4799 25.5361 15.7665 25.2808C15.8628 25.1949 15.8689 25.1265 15.8097 25.0143C15.7173 24.839 15.6466 24.6521 15.5698 24.4687C15.521 24.3519 15.5097 24.1859 15.4236 24.1272C15.3311 24.0643 15.171 24.0985 15.0403 24.0949C14.2883 24.0746 13.64 23.5421 13.5517 22.7931C13.4925 22.2914 13.505 21.7762 13.5362 21.2701C13.5645 20.8119 13.813 20.4497 14.188 20.1823C14.5136 19.9502 14.8827 19.8791 15.2728 19.9066C15.4016 19.9157 15.4562 19.8682 15.4941 19.7495C15.5527 19.5658 15.6059 19.3721 15.7077 19.2123C15.8825 18.9379 15.8251 18.7641 15.5978 18.5353C15.326 18.2606 15.1695 17.8923 15.1604 17.506C15.1512 17.1196 15.29 16.7444 15.5484 16.457C15.8405 16.1322 16.1497 15.8233 16.4746 15.5315C16.8412 15.2019 17.2849 15.1001 17.7709 15.183C18.1727 15.2516 18.4794 15.4778 18.743 15.7722C18.8147 15.8523 18.8725 15.8565 18.968 15.8094C19.1754 15.7071 19.3895 15.6175 19.6042 15.5313C19.9018 15.4118 19.9013 15.4151 19.9077 15.0866C19.9211 14.3912 20.2501 13.9024 20.88 13.6179C20.9967 13.5721 21.1158 13.5327 21.2368 13.5ZM22.0076 14.4962C21.8309 14.4962 21.6541 14.4935 21.4775 14.4968C21.1415 14.5029 20.9079 14.7367 20.9023 15.0741C20.8985 15.3009 20.9036 15.5278 20.9006 15.7546C20.8969 16.0397 20.7687 16.2139 20.497 16.2888C19.986 16.4295 19.4947 16.6336 19.0344 16.8964C18.782 17.0402 18.5817 17.0103 18.3737 16.8076C18.2114 16.6495 18.0554 16.4848 17.8918 16.3281C17.6385 16.0855 17.3161 16.0874 17.065 16.3334C16.8241 16.5694 16.5859 16.808 16.3502 17.0493C16.0918 17.3131 16.0941 17.6345 16.3543 17.9018C16.5046 18.0563 16.66 18.2059 16.8103 18.3604C17.0213 18.5773 17.0508 18.7736 16.902 19.0356C16.6424 19.4922 16.4405 19.9794 16.3011 20.4858C16.2227 20.7698 16.0532 20.8964 15.7589 20.8996C15.5325 20.9021 15.306 20.8971 15.0796 20.9014C14.7524 20.9076 14.5157 21.1412 14.511 21.4677C14.5059 21.8217 14.5059 22.1759 14.511 22.53C14.5095 22.6049 14.5232 22.6794 14.5512 22.7489C14.5792 22.8184 14.6208 22.8815 14.6737 22.9346C14.7266 22.9876 14.7897 23.0295 14.8591 23.0576C14.9285 23.0858 15.0029 23.0997 15.0778 23.0985C15.3042 23.1031 15.5307 23.0981 15.757 23.1003C16.0525 23.1033 16.2225 23.229 16.3006 23.5122C16.4398 24.0187 16.6416 24.5058 16.9012 24.9625C17.0504 25.225 17.0217 25.4219 16.8116 25.6381C16.6576 25.7967 16.4977 25.9496 16.3442 26.1087C16.0943 26.3677 16.0957 26.6905 16.3488 26.9492C16.5808 27.1863 16.815 27.4211 17.0516 27.6536C17.3165 27.9152 17.6373 27.9182 17.9027 27.6614C18.0616 27.5077 18.2144 27.3477 18.3725 27.1931C18.5803 26.9901 18.7802 26.9592 19.033 27.1028C19.4935 27.3652 19.9847 27.5694 20.4955 27.7108C20.7683 27.7862 20.8968 27.9593 20.9006 28.2436C20.9036 28.4704 20.8986 28.6973 20.9023 28.9241C20.9077 29.262 21.1407 29.4986 21.4761 29.5028C21.824 29.5072 22.1719 29.5072 22.5199 29.5029C22.8556 29.4988 23.0897 29.2628 23.0956 28.926C23.0996 28.6992 23.0946 28.4722 23.0973 28.2454C23.1008 27.9597 23.2278 27.7863 23.5005 27.7113C24.0117 27.5709 24.5031 27.3668 24.9633 27.1037C25.2166 26.9592 25.4148 26.9885 25.6241 27.1917C25.7866 27.3496 25.9422 27.5147 26.1058 27.6715C26.3587 27.9138 26.6812 27.9123 26.933 27.6665C27.1742 27.4309 27.4125 27.1923 27.6478 26.9507C27.9013 26.6917 27.9041 26.3709 27.6549 26.1098C27.4985 25.9458 27.3337 25.7899 27.1763 25.6268C26.9802 25.4238 26.9489 25.2219 27.0876 24.9784C27.3536 24.5126 27.5596 24.0151 27.7007 23.4977C27.7724 23.2353 27.949 23.1049 28.2227 23.1007C28.4546 23.0971 28.6866 23.103 28.9185 23.0985C29.2453 23.0921 29.4819 22.8583 29.4868 22.5314C29.4921 22.1774 29.4922 21.8233 29.4868 21.4691C29.4882 21.3942 29.4745 21.3197 29.4465 21.2502C29.4185 21.1808 29.3767 21.1176 29.3237 21.0646C29.2708 21.0117 29.2077 20.9699 29.1382 20.9418C29.0687 20.9138 28.9943 20.9001 28.9194 20.9014C28.6875 20.897 28.4554 20.9029 28.2235 20.8993C27.9497 20.895 27.7723 20.7648 27.7009 20.5029C27.5598 19.9855 27.3539 19.488 27.0881 19.0221C26.949 18.7777 26.9798 18.5765 27.1758 18.3736C27.3371 18.2066 27.5065 18.0474 27.6656 17.8784C27.8998 17.6299 27.8975 17.307 27.6596 17.0619C27.4209 16.816 27.1788 16.5733 26.9334 16.334C26.6769 16.0831 26.3549 16.0861 26.0945 16.3392C25.936 16.4933 25.7834 16.6535 25.6249 16.8076C25.4159 17.0106 25.2161 17.0407 24.9641 16.8967C24.5041 16.6332 24.0127 16.429 23.5014 16.2889C23.2289 16.2141 23.1011 16.0403 23.0975 15.7553C23.0945 15.523 23.1005 15.2905 23.0951 15.0582C23.0956 14.9847 23.0815 14.9118 23.0537 14.8438C23.0259 14.7758 22.9849 14.7139 22.9331 14.6618C22.8813 14.6097 22.8197 14.5683 22.7518 14.5401C22.684 14.5118 22.6112 14.4973 22.5378 14.4973C22.3612 14.4923 22.1843 14.4964 22.0076 14.4962Z" fill="#CCCCCC"/>
<path d="M21.2368 13.5H22.7612C22.7787 13.5118 22.7977 13.5213 22.8176 13.5283C23.4905 13.6722 23.9576 14.1478 24.0699 14.8211C24.0908 14.98 24.097 15.1405 24.0883 15.3005C24.0863 15.3939 24.117 15.435 24.2053 15.4655C24.4083 15.5355 24.6072 15.6177 24.806 15.699C24.9228 15.7468 25.0451 15.856 25.1491 15.8392C25.2526 15.8224 25.3367 15.6831 25.4287 15.5968C26.0523 15.0118 26.9608 15.0007 27.5845 15.5824C27.8751 15.8535 28.1571 16.1353 28.4253 16.4286C28.7759 16.8118 28.8925 17.2707 28.7979 17.782C28.7342 18.1264 28.5559 18.4057 28.3088 18.6472C28.119 18.8328 28.1247 18.8334 28.2308 19.0681C28.3147 19.2541 28.3931 19.4425 28.4658 19.6335C28.5684 19.9017 28.5652 19.9029 28.8509 19.9041C29.5598 19.9069 30.1183 20.2647 30.3652 20.879C30.4119 20.9951 30.4437 21.1171 30.4824 21.2363V22.7637C30.4703 22.7988 30.4553 22.8332 30.4464 22.8691C30.3964 23.0937 30.2977 23.3046 30.1573 23.4869C30.0169 23.6692 29.8382 23.8185 29.6338 23.9241C29.3413 24.0812 29.025 24.1112 28.7019 24.0942C28.5972 24.0887 28.5478 24.1207 28.5139 24.2257C28.4498 24.4248 28.3659 24.6177 28.2866 24.8118C28.2388 24.9287 28.1307 25.0516 28.1477 25.1558C28.1646 25.2596 28.3036 25.3437 28.3897 25.4359C28.9733 26.0612 28.984 26.9696 28.4036 27.5961C28.1373 27.8836 27.8602 28.161 27.5724 28.4283C27.1717 28.8005 26.6921 28.9167 26.1603 28.8028C25.8336 28.7308 25.5401 28.5524 25.3256 28.2957C25.2103 28.1626 25.1159 28.1344 24.9534 28.2269C24.7633 28.3351 24.5512 28.4058 24.3456 28.4846C24.093 28.5814 24.0872 28.5778 24.0917 28.8486C24.1017 29.4484 23.8712 29.9283 23.3645 30.2497C23.1833 30.3646 22.9634 30.4183 22.7612 30.5H21.2368C21.1806 30.4814 21.1249 30.4608 21.068 30.4444C20.4898 30.2772 20.1125 29.9022 19.9599 29.3225C19.9075 29.1233 19.9162 28.9064 19.9101 28.6972C19.9075 28.6048 19.881 28.5631 19.7919 28.5326C19.5887 28.4631 19.3741 28.405 19.1946 28.2933C18.9344 28.1314 18.7752 28.1826 18.5609 28.3974C17.9571 29.0024 17.0363 28.9983 16.4109 28.4143C16.1162 28.1391 15.8291 27.8539 15.5589 27.5549C15.2192 27.179 15.1096 26.7278 15.1971 26.2284C15.2653 25.8389 15.4799 25.5361 15.7665 25.2808C15.8628 25.1949 15.8689 25.1265 15.8097 25.0143C15.7173 24.839 15.6466 24.6521 15.5698 24.4687C15.521 24.3519 15.5097 24.1859 15.4236 24.1272C15.3311 24.0643 15.171 24.0985 15.0403 24.0949C14.2883 24.0746 13.64 23.5421 13.5517 22.7931C13.4925 22.2914 13.505 21.7762 13.5362 21.2701C13.5645 20.8119 13.813 20.4497 14.188 20.1823C14.5136 19.9502 14.8827 19.8791 15.2728 19.9066C15.4016 19.9157 15.4562 19.8682 15.4941 19.7495C15.5527 19.5658 15.6059 19.3721 15.7077 19.2123C15.8825 18.9379 15.8251 18.7641 15.5978 18.5353C15.326 18.2606 15.1695 17.8923 15.1604 17.506C15.1512 17.1196 15.29 16.7444 15.5484 16.457C15.8405 16.1322 16.1497 15.8233 16.4746 15.5315C16.8412 15.2019 17.2849 15.1001 17.7709 15.183C18.1727 15.2516 18.4794 15.4778 18.743 15.7722C18.8147 15.8523 18.8725 15.8565 18.968 15.8094C19.1754 15.7071 19.3895 15.6175 19.6042 15.5313C19.9018 15.4118 19.9013 15.4151 19.9077 15.0866C19.9211 14.3912 20.2501 13.9024 20.88 13.6179C20.9967 13.5721 21.1158 13.5327 21.2368 13.5ZM22.0076 14.4962C21.8309 14.4962 21.6541 14.4935 21.4775 14.4968C21.1415 14.5029 20.9079 14.7367 20.9023 15.0741C20.8985 15.3009 20.9036 15.5278 20.9006 15.7546C20.8969 16.0397 20.7687 16.2139 20.497 16.2888C19.986 16.4295 19.4947 16.6336 19.0344 16.8964C18.782 17.0402 18.5817 17.0103 18.3737 16.8076C18.2114 16.6495 18.0554 16.4848 17.8918 16.3281C17.6385 16.0855 17.3161 16.0874 17.065 16.3334C16.8241 16.5694 16.5859 16.808 16.3502 17.0493C16.0918 17.3131 16.0941 17.6345 16.3543 17.9018C16.5046 18.0563 16.66 18.2059 16.8103 18.3604C17.0213 18.5773 17.0508 18.7736 16.902 19.0356C16.6424 19.4922 16.4405 19.9794 16.3011 20.4858C16.2227 20.7698 16.0532 20.8964 15.7589 20.8996C15.5325 20.9021 15.306 20.8971 15.0796 20.9014C14.7524 20.9076 14.5157 21.1412 14.511 21.4677C14.5059 21.8217 14.5059 22.1759 14.511 22.53C14.5095 22.6049 14.5232 22.6794 14.5512 22.7489C14.5792 22.8184 14.6208 22.8815 14.6737 22.9346C14.7266 22.9876 14.7897 23.0295 14.8591 23.0576C14.9285 23.0858 15.0029 23.0997 15.0778 23.0985C15.3042 23.1031 15.5307 23.0981 15.757 23.1003C16.0525 23.1033 16.2225 23.229 16.3006 23.5122C16.4398 24.0187 16.6416 24.5058 16.9012 24.9625C17.0504 25.225 17.0217 25.4219 16.8116 25.6381C16.6576 25.7967 16.4977 25.9496 16.3442 26.1087C16.0943 26.3677 16.0957 26.6905 16.3488 26.9492C16.5808 27.1863 16.815 27.4211 17.0516 27.6536C17.3165 27.9152 17.6373 27.9182 17.9027 27.6614C18.0616 27.5077 18.2144 27.3477 18.3725 27.1931C18.5803 26.9901 18.7802 26.9592 19.033 27.1028C19.4935 27.3652 19.9847 27.5694 20.4955 27.7108C20.7683 27.7862 20.8968 27.9593 20.9006 28.2436C20.9036 28.4704 20.8986 28.6973 20.9023 28.9241C20.9077 29.262 21.1407 29.4986 21.4761 29.5028C21.824 29.5072 22.1719 29.5072 22.5199 29.5029C22.8556 29.4988 23.0897 29.2628 23.0956 28.926C23.0996 28.6992 23.0946 28.4722 23.0973 28.2454C23.1008 27.9597 23.2278 27.7863 23.5005 27.7113C24.0117 27.5709 24.5031 27.3668 24.9633 27.1037C25.2166 26.9592 25.4148 26.9885 25.6241 27.1917C25.7866 27.3496 25.9422 27.5147 26.1058 27.6715C26.3587 27.9138 26.6812 27.9123 26.933 27.6665C27.1742 27.4309 27.4125 27.1923 27.6478 26.9507C27.9013 26.6917 27.9041 26.3709 27.6549 26.1098C27.4985 25.9458 27.3337 25.7899 27.1763 25.6268C26.9802 25.4238 26.9489 25.2219 27.0876 24.9784C27.3536 24.5126 27.5596 24.0151 27.7007 23.4977C27.7724 23.2353 27.949 23.1049 28.2227 23.1007C28.4546 23.0971 28.6866 23.103 28.9185 23.0985C29.2453 23.0921 29.4819 22.8583 29.4868 22.5314C29.4921 22.1774 29.4922 21.8233 29.4868 21.4691C29.4882 21.3942 29.4745 21.3197 29.4465 21.2502C29.4185 21.1808 29.3767 21.1176 29.3237 21.0646C29.2708 21.0117 29.2077 20.9699 29.1382 20.9418C29.0687 20.9138 28.9943 20.9001 28.9194 20.9014C28.6875 20.897 28.4554 20.9029 28.2235 20.8993C27.9497 20.895 27.7723 20.7648 27.7009 20.5029C27.5598 19.9855 27.3539 19.488 27.0881 19.0221C26.949 18.7777 26.9798 18.5765 27.1758 18.3736C27.3371 18.2066 27.5065 18.0474 27.6656 17.8784C27.8998 17.6299 27.8975 17.307 27.6596 17.0619C27.4209 16.816 27.1788 16.5733 26.9334 16.334C26.6769 16.0831 26.3549 16.0861 26.0945 16.3392C25.936 16.4933 25.7834 16.6535 25.6249 16.8076C25.4159 17.0106 25.2161 17.0407 24.9641 16.8967C24.5041 16.6332 24.0127 16.429 23.5014 16.2889C23.2289 16.2141 23.1011 16.0403 23.0975 15.7553C23.0945 15.523 23.1005 15.2905 23.0951 15.0582C23.0956 14.9847 23.0815 14.9118 23.0537 14.8438C23.0259 14.7758 22.9849 14.7139 22.9331 14.6618C22.8813 14.6097 22.8197 14.5683 22.7518 14.5401C22.684 14.5118 22.6112 14.4973 22.5378 14.4973C22.3612 14.4923 22.1843 14.4964 22.0076 14.4962Z" stroke="#CCCCCC" stroke-width="0.1" mask="url(#path-2-outside-1_1_2693)"/>
<path d="M18.2953 21.9965C18.2948 21.5092 18.3905 21.0266 18.5768 20.5764C18.7632 20.1261 19.0366 19.7171 19.3813 19.3727C19.726 19.0283 20.1353 18.7553 20.5858 18.5694C21.0362 18.3834 21.5189 18.2882 22.0062 18.2892C22.4934 18.2902 22.9758 18.3873 23.4254 18.575C23.8751 18.7627 24.2833 19.0374 24.6267 19.3831C24.97 19.7289 25.2418 20.139 25.4263 20.59L18.2953 21.9965ZM18.2953 21.9965C18.293 22.9791 18.681 23.9225 19.3741 24.6191C20.0672 25.3157 21.0086 25.7084 21.9913 25.711C21.9913 25.711 21.9913 25.711 21.9913 25.711L21.9914 25.696C24.0256 25.7028 25.6781 24.0552 25.6872 22.0112M18.2953 21.9965L18.2953 21.9964L18.3103 21.9965C18.3098 21.5112 18.4051 21.0305 18.5907 20.5821C18.7763 20.1337 19.0486 19.7263 19.3919 19.3833C19.7352 19.0403 20.1429 18.7684 20.5915 18.5832C21.0401 18.3981 21.5208 18.3032 22.0061 18.3042C22.4914 18.3052 22.9718 18.4019 23.4197 18.5889C23.8675 18.7758 24.2741 19.0493 24.616 19.3937C24.958 19.7381 25.2286 20.1466 25.4124 20.5957C25.5962 21.0449 25.6896 21.5259 25.6872 22.0112M25.6872 22.0112L25.7022 22.0113C25.7022 22.0113 25.7022 22.0113 25.7022 22.0113L25.6872 22.0112ZM21.9986 19.3151H21.9987C22.351 19.3149 22.6999 19.3843 23.0254 19.5192C23.3509 19.6541 23.6466 19.8519 23.8955 20.1013C24.1444 20.3507 24.3416 20.6468 24.4759 20.9725C24.6102 21.2983 24.6789 21.6473 24.678 21.9997V21.9997C24.6781 22.531 24.5205 23.0503 24.2253 23.492C23.93 23.9337 23.5104 24.2779 23.0195 24.481C22.5285 24.6841 21.9884 24.737 21.4674 24.6329C20.9464 24.5289 20.468 24.2727 20.0927 23.8966C19.7174 23.5206 19.4621 23.0417 19.3591 22.5205C19.2561 21.9993 19.3101 21.4592 19.5141 20.9687C19.7182 20.4782 20.0632 20.0592 20.5054 19.7649C20.9477 19.4705 21.4674 19.314 21.9986 19.3151Z" fill="#CCCCCC" stroke="#CCCCCC" stroke-width="0.03"/>
</svg>
